<svg width="18" height="17" viewBox="0 0 18 17" fill="none" xmlns="http://www.w3.org/2000/svg">
<path d="M4.37913 13.8333L0.666626 16.75V1.33333C0.666626 1.11232 0.754423 0.900358 0.910704 0.744078C1.06698 0.587797 1.27895 0.5 1.49996 0.5H16.5C16.721 0.5 16.9329 0.587797 17.0892 0.744078C17.2455 0.900358 17.3333 1.11232 17.3333 1.33333V13C17.3333 13.221 17.2455 13.433 17.0892 13.5893C16.9329 13.7455 16.721 13.8333 16.5 13.8333H4.37913ZM3.80246 12.1667H15.6666V2.16667H2.33329V13.3208L3.80246 12.1667ZM8.16663 6.33333H9.83329V8H8.16663V6.33333ZM4.83329 6.33333H6.49996V8H4.83329V6.33333ZM11.5 6.33333H13.1666V8H11.5V6.33333Z" fill="black"/>
</svg>
