<svg width="18" height="18" viewBox="0 0 18 18" fill="none" xmlns="http://www.w3.org/2000/svg">
<path d="M13.1667 2.49998H16.5001C16.7211 2.49998 16.9331 2.58778 17.0893 2.74406C17.2456 2.90034 17.3334 3.1123 17.3334 3.33331V16.6666C17.3334 16.8877 17.2456 17.0996 17.0893 17.2559C16.9331 17.4122 16.7211 17.5 16.5001 17.5H1.50008C1.27907 17.5 1.06711 17.4122 0.910826 17.2559C0.754545 17.0996 0.666748 16.8877 0.666748 16.6666V3.33331C0.666748 3.1123 0.754545 2.90034 0.910826 2.74406C1.06711 2.58778 1.27907 2.49998 1.50008 2.49998H4.83342V0.833313H6.50008V2.49998H11.5001V0.833313H13.1667V2.49998ZM11.5001 4.16665H6.50008V5.83331H4.83342V4.16665H2.33341V7.49998H15.6667V4.16665H13.1667V5.83331H11.5001V4.16665ZM15.6667 9.16665H2.33341V15.8333H15.6667V9.16665Z" fill="black"/>
</svg>
