<svg width="30" height="28" viewBox="0 0 30 28" fill="none" xmlns="http://www.w3.org/2000/svg">
<path d="M10.5 0.5H19.5L22.5 3.5H28.5C28.8978 3.5 29.2794 3.65804 29.5607 3.93934C29.842 4.22064 30 4.60218 30 5V26C30 26.3978 29.842 26.7794 29.5607 27.0607C29.2794 27.342 28.8978 27.5 28.5 27.5H1.5C1.10218 27.5 0.720644 27.342 0.43934 27.0607C0.158035 26.7794 0 26.3978 0 26V5C0 4.60218 0.158035 4.22064 0.43934 3.93934C0.720644 3.65804 1.10218 3.5 1.5 3.5H7.5L10.5 0.5ZM15 24.5C17.3869 24.5 19.6761 23.5518 21.364 21.864C23.0518 20.1761 24 17.8869 24 15.5C24 13.1131 23.0518 10.8239 21.364 9.13604C19.6761 7.44821 17.3869 6.5 15 6.5C12.6131 6.5 10.3239 7.44821 8.63604 9.13604C6.94821 10.8239 6 13.1131 6 15.5C6 17.8869 6.94821 20.1761 8.63604 21.864C10.3239 23.5518 12.6131 24.5 15 24.5ZM15 21.5C13.4087 21.5 11.8826 20.8679 10.7574 19.7426C9.63214 18.6174 9 17.0913 9 15.5C9 13.9087 9.63214 12.3826 10.7574 11.2574C11.8826 10.1321 13.4087 9.5 15 9.5C16.5913 9.5 18.1174 10.1321 19.2426 11.2574C20.3679 12.3826 21 13.9087 21 15.5C21 17.0913 20.3679 18.6174 19.2426 19.7426C18.1174 20.8679 16.5913 21.5 15 21.5Z" fill="#404040"/>
</svg>
