<svg width="30" height="28" viewBox="0 0 30 28" fill="none" xmlns="http://www.w3.org/2000/svg">
<path d="M0 1.9895C0.00274507 1.59557 0.16035 1.21853 0.438769 0.939826C0.717188 0.661127 1.09407 0.503142 1.488 0.5H28.512C29.334 0.5 30 1.1675 30 1.9895V26.0105C29.9973 26.4044 29.8396 26.7815 29.5612 27.0602C29.2828 27.3389 28.9059 27.4969 28.512 27.5H1.488C1.09322 27.4996 0.714745 27.3425 0.435734 27.0632C0.156723 26.7839 -2.00183e-07 26.4053 0 26.0105V1.9895ZM12.933 8.6225C12.8427 8.56227 12.7378 8.52765 12.6294 8.52233C12.521 8.51701 12.4132 8.54119 12.3175 8.59229C12.2217 8.64339 12.1416 8.71951 12.0857 8.81252C12.0298 8.90554 12.0002 9.01198 12 9.1205V18.8795C12.0002 18.988 12.0298 19.0945 12.0857 19.1875C12.1416 19.2805 12.2217 19.3566 12.3175 19.4077C12.4132 19.4588 12.521 19.483 12.6294 19.4777C12.7378 19.4723 12.8427 19.4377 12.933 19.3775L20.2515 14.4995C20.3338 14.4447 20.4013 14.3705 20.448 14.2833C20.4947 14.1962 20.5191 14.0989 20.5191 14C20.5191 13.9011 20.4947 13.8038 20.448 13.7167C20.4013 13.6295 20.3338 13.5553 20.2515 13.5005L12.9315 8.6225H12.933Z" fill="#404040"/>
</svg>
